<?xml version="1.0" encoding="UTF-8" standalone="no"?>
<!-- Created with Inkscape (http://www.inkscape.org/) -->

<svg
   width="150mm"
   height="150mm"
   viewBox="0 0 150.00001 150"
   version="1.1"
   id="svg1247"
   sodipodi:docname="favicon.svg"
   inkscape:version="1.2.1 (9c6d41e410, 2022-07-14)"
   xmlns:inkscape="http://www.inkscape.org/namespaces/inkscape"
   xmlns:sodipodi="http://sodipodi.sourceforge.net/DTD/sodipodi-0.dtd"
   xmlns="http://www.w3.org/2000/svg"
   xmlns:svg="http://www.w3.org/2000/svg">
  <sodipodi:namedview
     id="namedview10"
     pagecolor="#ffffff"
     bordercolor="#666666"
     borderopacity="1.0"
     inkscape:showpageshadow="2"
     inkscape:pageopacity="0.0"
     inkscape:pagecheckerboard="0"
     inkscape:deskcolor="#d1d1d1"
     inkscape:document-units="mm"
     showgrid="false"
     inkscape:zoom="0.83961111"
     inkscape:cx="284.06008"
     inkscape:cy="283.46457"
     inkscape:window-width="1366"
     inkscape:window-height="699"
     inkscape:window-x="0"
     inkscape:window-y="0"
     inkscape:window-maximized="1"
     inkscape:current-layer="text3342" />
  <defs
     id="defs1244" />
  <g
     id="layer1"
     transform="translate(-123.14939,9.8583591)">
    <path
       style="fill:none;stroke:#000000;stroke-width:0.264583px;stroke-linecap:butt;stroke-linejoin:miter;stroke-opacity:1"
       d="m -636.94186,240.42426 c 0,0 9.44619,-129.51876 138.71697,-129.178 129.27078,0.34076 139.10489,132.61535 139.10489,132.61535"
       id="path864" />
    <path
       style="fill:none;stroke:#000000;stroke-width:0.264583px;stroke-linecap:butt;stroke-linejoin:miter;stroke-opacity:1"
       d="m -779.50497,238.95976 c 0,0 26.36241,195.0229 194.80332,193.60864 168.44091,-1.41426 165.93824,-202.07271 165.93824,-202.07271"
       id="path14" />
    <rect
       style="fill:#ffffff;stroke:none;stroke-width:2.1938;stroke-opacity:0.988137"
       id="rect2088"
       width="150"
       height="150"
       x="-273.14938"
       y="-9.8583593"
       ry="17.598127"
       transform="scale(-1,1)" />
    <g
       aria-label="G"
       id="text3342"
       style="font-size:145.349px;line-height:1.25;font-family:Diploma;-inkscape-font-specification:Diploma;stroke-width:0.757024">
      <path
         d="m 247.10658,68.470486 q 0,23.837236 -21.80235,37.936084 -17.58722,11.33723 -37.35469,11.33723 -15.69769,0 -27.18026,-9.15699 -13.66281,-10.901175 -13.66281,-30.668639 0,-14.825598 10.31978,-29.0698 7.84885,-10.901175 22.5291,-22.383746 10.90117,-7.848845 21.9477,-15.697691 3.19767,2.034886 6.39535,3.924423 5.23257,2.90698 9.44769,3.924423 7.99419,1.889537 15.26164,1.889537 2.47093,0 4.94187,0 2.32558,-0.436047 3.34302,-0.581396 l 0.2907,0.436047 -22.09305,17.877926 q 13.22676,4.651168 19.47677,10.465128 8.13954,7.703497 8.13954,19.767464 z m -30.66863,-32.848874 -25.00003,-10.465128 -2.18024,2.180235 v 30.232592 z m 17.00583,36.191901 q -2.32559,-9.738383 -9.15699,-14.098853 -5.37791,-3.488376 -12.64536,-3.488376 -4.21512,0 -5.95931,0.436047 -1.74419,0.436047 -4.94187,1.598839 v 15.843041 q 5.81396,2.90698 7.4128,3.488376 3.92443,1.45349 9.01164,1.45349 4.94187,0 9.15699,-1.744188 4.65117,-2.325584 7.1221,-3.488376 z m 0.87209,3.633725 q -3.63372,1.744188 -8.57559,3.343027 -4.94186,1.45349 -8.57559,1.45349 -3.92442,0 -7.55815,-0.872094 -3.63372,-1.017443 -8.86629,-3.052329 v 13.953504 q 3.77908,-1.598839 7.1221,-2.470933 3.34303,-0.872094 7.26745,-0.872094 5.66862,0 8.86629,0.581396 3.19768,0.581396 7.9942,3.052329 0.72674,-1.889537 1.30814,-3.779074 0.72674,-1.889537 1.01744,-3.779074 0.2907,-1.889537 0.2907,-4.505819 0,-1.017443 -0.2907,-3.052329 z m -3.34302,18.459323 q -3.48838,-1.889537 -7.84885,-2.761631 -4.36047,-1.017443 -7.84885,-1.017443 -2.90698,0 -7.1221,1.162792 -4.06977,1.162792 -7.4128,2.761631 v 17.00583 q 2.76163,0 5.81396,-0.72674 3.19768,-0.72675 8.43025,-3.05233 5.23256,-2.32559 8.72094,-5.37791 3.63372,-3.197682 7.26745,-7.994199 z M 173.41464,87.365856 V 38.673941 q -6.10466,5.81396 -8.72094,10.901175 -3.05233,5.81396 -3.05233,13.662806 0,9.738383 1.59884,16.279088 1.74419,6.540705 7.1221,12.936061 1.01745,-0.726745 1.45349,-1.308141 1.59884,-1.889537 1.59884,-3.779074 z m 23.54654,23.546534 V 57.423962 l -3.77907,2.034886 q -1.1628,0.581396 -3.05233,1.744188 -0.2907,0.145349 -0.8721,0.581396 v 15.697692 q 0,4.796517 -6.5407,10.610477 -2.61628,2.325584 -10.31978,7.558148 1.30814,1.889537 4.94186,5.377911 4.79652,4.50582 8.43025,6.54071 6.10465,3.34302 11.19187,3.34302 z"
         id="path442" />
    </g>
  </g>
</svg>
